<svg width="24" height="24" viewBox="0 0 24 24" fill="none" xmlns="http://www.w3.org/2000/svg"><path d="M20.485 3.515A11.915 11.915 0 0012 0a11.915 11.915 0 00-8.485 3.515A11.915 11.915 0 000 12c0 3.207 1.247 6.217 3.515 8.485A11.915 11.915 0 0012 24c3.207 0 6.217-1.247 8.485-3.515A11.915 11.915 0 0024 12c0-3.207-1.247-6.217-3.515-8.485zM19.52 19.52A10.567 10.567 0 0112 22.636c-2.838 0-5.51-1.106-7.52-3.116C.333 15.374.333 8.626 4.48 4.48A10.567 10.567 0 0112 1.364c2.838 0 5.51 1.106 7.52 3.116 4.147 4.146 4.147 10.894 0 15.04z" fill="url(#paint0_linear)"/><defs><linearGradient id="paint0_linear" x1="24" y1="24" x2="-1.168" y2="22.706" gradientUnits="userSpaceOnUse"><stop stop-color="#36D1DC"/><stop offset="1" stop-color="#4CA5E3"/></linearGradient></defs></svg>