<svg width="12" height="12" viewBox="0 0 12 12" fill="none" xmlns="http://www.w3.org/2000/svg"><path d="M11.288.712a.68.68 0 00-.965 0L6 5.036 1.677.712a.68.68 0 00-.965 0 .68.68 0 000 .965L5.035 6 .712 10.324a.68.68 0 000 .964.686.686 0 00.48.202.665.665 0 00.48-.202l4.323-4.323 4.323 4.323a.686.686 0 00.48.202.657.657 0 00.48-.202.68.68 0 000-.964L6.965 6l4.323-4.323a.68.68 0 000-.965z" fill="url(#paint0_linear)"/><defs><linearGradient id="paint0_linear" x1="11.489" y1="11.49" x2="-.023" y2="10.898" gradientUnits="userSpaceOnUse"><stop stop-color="#36D1DC"/><stop offset="1" stop-color="#4CA5E3"/></linearGradient></defs></svg>