<svg width="20" height="24" viewBox="0 0 20 24" fill="none" xmlns="http://www.w3.org/2000/svg">
<path d="M9.99513 0C4.69198 0 0.375 4.31698 0.375 9.62013C0.375 10.2239 0.430346 10.8327 0.546069 11.4264C0.551101 11.4616 0.571226 11.5673 0.611478 11.7484C0.75739 12.3975 0.973742 13.0365 1.2555 13.6453C2.29198 16.0855 4.57123 19.834 9.57248 23.8491C9.69827 23.9497 9.84921 24 10.0002 24C10.1511 24 10.302 23.9497 10.4278 23.8491C15.4241 19.834 17.7083 16.0855 18.7448 13.6453C19.0266 13.0365 19.2429 12.4025 19.3888 11.7484C19.4291 11.5673 19.4492 11.4616 19.4542 11.4264C19.5649 10.8327 19.6253 10.2239 19.6253 9.62013C19.6152 4.31698 15.2983 0 9.99513 0ZM18.1058 11.1899C18.1058 11.2 18.1008 11.2101 18.1008 11.2201C18.0958 11.2453 18.0807 11.3208 18.0555 11.4365C18.0555 11.4415 18.0555 11.4415 18.0555 11.4465C17.9297 12.0101 17.7436 12.5585 17.497 13.0868C17.492 13.0918 17.492 13.1019 17.4869 13.1069C16.5461 15.3358 14.4832 18.7371 9.99513 22.4453C5.50708 18.7371 3.44418 15.3358 2.5033 13.1069C2.49827 13.1019 2.49827 13.0918 2.49324 13.0868C2.25173 12.5635 2.06557 12.0101 1.93475 11.4465C1.93475 11.4415 1.93475 11.4415 1.93475 11.4365C1.90456 11.3208 1.8945 11.2453 1.88947 11.2201C1.88947 11.2101 1.88443 11.2 1.88443 11.1849C1.7838 10.6667 1.73349 10.1434 1.73349 9.61509C1.73349 5.06164 5.44167 1.35346 9.99513 1.35346C14.5486 1.35346 18.2568 5.06164 18.2568 9.61509C18.2568 10.1484 18.2064 10.6767 18.1058 11.1899Z" fill="url(#paint0_linear)"/>
<path d="M9.99538 3.61719C6.62934 3.61719 3.88721 6.35933 3.88721 9.72536C3.88721 13.0914 6.62934 15.8335 9.99538 15.8335C13.3614 15.8335 16.1036 13.0914 16.1036 9.72536C16.1036 6.35933 13.3614 3.61719 9.99538 3.61719ZM9.99538 14.475C7.374 14.475 5.2457 12.3417 5.2457 9.72536C5.2457 7.10901 7.37903 4.97568 9.99538 4.97568C12.6117 4.97568 14.7451 7.10901 14.7451 9.72536C14.7451 12.3417 12.6168 14.475 9.99538 14.475Z" fill="url(#paint1_linear)"/>
<defs>
<linearGradient id="paint0_linear" x1="19.6253" y1="24" x2="-0.580766" y2="23.1664" gradientUnits="userSpaceOnUse">
<stop stop-color="#36D1DC"/>
<stop offset="1" stop-color="#4CA5E3"/>
</linearGradient>
<linearGradient id="paint1_linear" x1="16.1036" y1="15.8335" x2="3.29274" y2="15.1746" gradientUnits="userSpaceOnUse">
<stop stop-color="#36D1DC"/>
<stop offset="1" stop-color="#4CA5E3"/>
</linearGradient>
</defs>
</svg>
