<svg width="24" height="24" viewBox="0 0 24 24" fill="none" xmlns="http://www.w3.org/2000/svg">
<path d="M18.9501 14.8676C18.4588 14.356 17.8661 14.0825 17.238 14.0825C16.615 14.0825 16.0173 14.3509 15.5057 14.8625L13.905 16.4581C13.7733 16.3872 13.6416 16.3214 13.515 16.2555C13.3326 16.1643 13.1604 16.0782 13.0135 15.9871C11.5142 15.0348 10.1516 13.7937 8.84471 12.188C8.21154 11.3877 7.78605 10.714 7.47706 10.0302C7.89242 9.65028 8.27739 9.25518 8.65222 8.87528C8.79405 8.73345 8.93588 8.58655 9.07771 8.44472C10.1414 7.381 10.1414 6.00322 9.07771 4.93949L7.69487 3.55665C7.53784 3.39962 7.37575 3.23753 7.22379 3.07544C6.91987 2.76139 6.60075 2.4372 6.2715 2.13328C5.78016 1.64701 5.19258 1.38867 4.57461 1.38867C3.95663 1.38867 3.35892 1.64701 2.85238 2.13328C2.84732 2.13835 2.84732 2.13835 2.84225 2.14341L1.12003 3.88083C0.471661 4.5292 0.101889 5.31939 0.0208432 6.23623C-0.100726 7.71531 0.334896 9.09309 0.66921 9.99473C1.4898 12.2083 2.71562 14.2598 4.54421 16.4581C6.76284 19.1073 9.43229 21.1993 12.4816 22.6733C13.6467 23.2255 15.2017 23.8789 16.9392 23.9903C17.0455 23.9954 17.157 24.0005 17.2583 24.0005C18.4284 24.0005 19.4111 23.58 20.181 22.7442C20.1861 22.7341 20.1962 22.7291 20.2013 22.7189C20.4647 22.3998 20.7686 22.1111 21.0877 21.8021C21.3055 21.5944 21.5284 21.3766 21.7462 21.1487C22.2477 20.6269 22.5111 20.0191 22.5111 19.396C22.5111 18.7679 22.2426 18.1652 21.731 17.6586L18.9501 14.8676ZM20.7635 20.2014C20.7584 20.2014 20.7584 20.2065 20.7635 20.2014C20.566 20.4142 20.3633 20.6067 20.1455 20.8194C19.8163 21.1335 19.482 21.4627 19.1679 21.8325C18.6563 22.3795 18.0535 22.6379 17.2633 22.6379C17.1874 22.6379 17.1063 22.6379 17.0303 22.6328C15.5259 22.5366 14.1279 21.949 13.0794 21.4475C10.2124 20.0596 7.69487 18.0892 5.60287 15.592C3.87559 13.5101 2.72068 11.5852 1.95581 9.51858C1.48473 8.25731 1.31251 7.27462 1.38849 6.34766C1.43915 5.75502 1.66709 5.26368 2.08751 4.84325L3.8148 3.11596C4.063 2.88295 4.3264 2.75632 4.58474 2.75632C4.90385 2.75632 5.16219 2.9488 5.32428 3.1109C5.32935 3.11596 5.33441 3.12103 5.33948 3.12609C5.64846 3.41482 5.94225 3.71367 6.25124 4.03279C6.40827 4.19488 6.57036 4.35698 6.73245 4.52413L8.1153 5.90698C8.65222 6.44391 8.65222 6.94031 8.1153 7.47724C7.9684 7.62414 7.82657 7.77103 7.67967 7.91286C7.25418 8.34848 6.84895 8.75371 6.40827 9.14881C6.39814 9.15894 6.38801 9.16401 6.38294 9.17414C5.94732 9.60976 6.02837 10.0352 6.11954 10.324C6.12461 10.3392 6.12967 10.3544 6.13474 10.3696C6.49438 11.2408 7.00092 12.0614 7.77085 13.039L7.77592 13.0441C9.17396 14.7663 10.648 16.1086 12.274 17.1369C12.4816 17.2686 12.6944 17.375 12.897 17.4763C13.0794 17.5674 13.2516 17.6536 13.3985 17.7447C13.4187 17.7549 13.439 17.7701 13.4593 17.7802C13.6315 17.8663 13.7936 17.9068 13.9607 17.9068C14.3812 17.9068 14.6446 17.6434 14.7307 17.5573L16.463 15.825C16.6352 15.6527 16.9088 15.4451 17.2279 15.4451C17.5419 15.4451 17.8003 15.6426 17.9573 15.8148C17.9624 15.8199 17.9624 15.8199 17.9674 15.825L20.7584 18.616C21.2802 19.1326 21.2802 19.6645 20.7635 20.2014Z" fill="url(#paint0_linear)"/>
<path d="M12.9525 5.7081C14.2797 5.93098 15.4852 6.55909 16.4476 7.5215C17.4101 8.48392 18.0331 9.68948 18.261 11.0166C18.3168 11.3509 18.6055 11.5839 18.9347 11.5839C18.9753 11.5839 19.0107 11.5789 19.0512 11.5738C19.4261 11.513 19.6743 11.1584 19.6135 10.7836C19.34 9.17788 18.5802 7.71399 17.4202 6.55402C16.2602 5.39405 14.7963 4.63425 13.1906 4.36072C12.8158 4.29993 12.4662 4.54814 12.4004 4.91791C12.3345 5.28768 12.5777 5.64732 12.9525 5.7081Z" fill="url(#paint1_linear)"/>
<path d="M23.9547 10.5869C23.5039 7.94279 22.2578 5.53674 20.3431 3.62203C18.4284 1.70732 16.0224 0.461243 13.3783 0.0104253C13.0085 -0.0554245 12.659 0.197844 12.5931 0.567615C12.5323 0.942452 12.7806 1.29196 13.1554 1.35781C15.5158 1.75798 17.6686 2.87742 19.3807 4.58445C21.0928 6.29654 22.2072 8.44932 22.6074 10.8098C22.6631 11.1441 22.9518 11.3771 23.2811 11.3771C23.3216 11.3771 23.357 11.372 23.3976 11.367C23.7673 11.3113 24.0206 10.9567 23.9547 10.5869Z" fill="url(#paint2_linear)"/>
<defs>
<linearGradient id="paint0_linear" x1="22.5111" y1="24.0005" x2="-1.09598" y2="22.7916" gradientUnits="userSpaceOnUse">
<stop stop-color="#36D1DC"/>
<stop offset="1" stop-color="#4CA5E3"/>
</linearGradient>
<linearGradient id="paint1_linear" x1="19.6226" y1="11.5839" x2="12.0377" y2="11.1938" gradientUnits="userSpaceOnUse">
<stop stop-color="#36D1DC"/>
<stop offset="1" stop-color="#4CA5E3"/>
</linearGradient>
<linearGradient id="paint2_linear" x1="23.9652" y1="11.3771" x2="12.0302" y2="10.763" gradientUnits="userSpaceOnUse">
<stop stop-color="#36D1DC"/>
<stop offset="1" stop-color="#4CA5E3"/>
</linearGradient>
</defs>
</svg>
