<svg width="12" height="12" viewBox="0 0 12 12" fill="none" xmlns="http://www.w3.org/2000/svg">
<path d="M11.288 0.712476C11.0203 0.4448 10.591 0.4448 10.3233 0.712476L6.0001 5.03571L1.67688 0.712476C1.4092 0.4448 0.979908 0.4448 0.712232 0.712476C0.444555 0.980153 0.444555 1.40945 0.712232 1.67712L5.03546 6.00036L0.712232 10.3236C0.444555 10.5913 0.444555 11.0206 0.712232 11.2882C0.843545 11.4195 1.02031 11.4903 1.19203 11.4903C1.36375 11.4903 1.54051 11.4246 1.67183 11.2882L5.99505 6.965L10.3183 11.2882C10.4496 11.4195 10.6264 11.4903 10.7981 11.4903C10.9748 11.4903 11.1466 11.4246 11.2779 11.2882C11.5456 11.0206 11.5456 10.5913 11.2779 10.3236L6.96475 6.00036L11.288 1.67712C11.5557 1.40945 11.5557 0.980153 11.288 0.712476Z" fill="url(#paint0_linear)"/>
<defs>
<linearGradient id="paint0_linear" x1="11.4887" y1="11.4903" x2="-0.0227035" y2="10.8982" gradientUnits="userSpaceOnUse">
<stop stop-color="#36D1DC"/>
<stop offset="1" stop-color="#4CA5E3"/>
</linearGradient>
</defs>
</svg>
