<svg width="30" height="30" viewBox="0 0 30 30" fill="none" xmlns="http://www.w3.org/2000/svg">
<path d="M25.5823 4.39146C22.7516 1.56211 18.9919 0 14.9874 0C10.9829 0 7.22326 1.56211 4.39251 4.39146C-1.06812 9.84942 -1.46355 18.5696 3.40081 24.4793C4.39818 25.691 5.37056 26.7274 7.88858 28.1806C10.0603 29.3475 12.5019 29.9623 14.9874 29.9623C18.9919 29.9623 22.7516 28.4065 25.5823 25.5771C28.413 22.7478 29.9696 18.9837 29.9696 14.9874C29.9696 10.9912 28.413 7.22082 25.5823 4.39146ZM24.3835 24.3726C21.8728 26.882 18.5337 28.2622 14.9874 28.2622C12.6149 28.2622 10.2862 27.6286 8.2589 26.4366C8.12709 26.3613 6.76871 25.4395 6.56403 25.2513C6.31296 25.0204 5.65322 24.471 5.03273 23.7704C0.388045 18.5257 0.632833 10.5332 5.59134 5.57716C8.10198 3.06775 11.4411 1.68758 14.9874 1.68758C18.5337 1.68758 21.8728 3.06775 24.3835 5.57716C29.5679 10.7654 29.5679 19.197 24.3835 24.3726Z" fill="url(#paint0_linear)"/>
<defs>
<linearGradient id="paint0_linear" x1="29.9696" y1="29.9623" x2="-1.45069" y2="28.3462" gradientUnits="userSpaceOnUse">
<stop stop-color="#36D1DC"/>
<stop offset="1" stop-color="#4CA5E3"/>
</linearGradient>
</defs>
</svg>
