<svg width="30" height="30" viewBox="0 0 30 30" fill="none" xmlns="http://www.w3.org/2000/svg"><path d="M25.582 4.391A14.888 14.888 0 0014.987 0 14.888 14.888 0 004.393 4.391C-1.068 9.85-1.464 18.57 3.4 24.48c.997 1.212 1.97 2.248 4.488 3.702a15.006 15.006 0 007.098 1.781c4.005 0 7.765-1.555 10.595-4.385a14.878 14.878 0 004.388-10.59c0-3.996-1.557-7.766-4.388-10.596zm-1.198 19.982a13.207 13.207 0 01-9.397 3.89 13.29 13.29 0 01-6.728-1.826c-.132-.076-1.49-.998-1.695-1.186-.251-.23-.91-.78-1.531-1.48-4.645-5.245-4.4-13.238.558-18.194a13.206 13.206 0 019.396-3.89c3.547 0 6.886 1.38 9.397 3.89 5.184 5.188 5.184 13.62 0 18.796z" fill="url(#paint0_linear)"/><defs><linearGradient id="paint0_linear" x1="29.97" y1="29.962" x2="-1.451" y2="28.346" gradientUnits="userSpaceOnUse"><stop stop-color="#36D1DC"/><stop offset="1" stop-color="#4CA5E3"/></linearGradient></defs></svg>