<svg width="24" height="24" viewBox="0 0 24 24" fill="none" xmlns="http://www.w3.org/2000/svg"><path d="M12 0C5.383 0 0 5.383 0 12s5.383 12 12 12 12-5.383 12-12S18.617 0 12 0zm0 22.5C6.21 22.5 1.5 17.79 1.5 12S6.21 1.5 12 1.5 22.5 6.21 22.5 12 17.79 22.5 12 22.5z" fill="url(#paint0_linear)"/><path d="M12.75 4.5h-1.5v7.81l4.72 4.72 1.06-1.06-4.28-4.28V4.5z" fill="url(#paint1_linear)"/><defs><linearGradient id="paint0_linear" x1="24" y1="24" x2="-1.168" y2="22.706" gradientUnits="userSpaceOnUse"><stop stop-color="#36D1DC"/><stop offset="1" stop-color="#4CA5E3"/></linearGradient><linearGradient id="paint1_linear" x1="17.03" y1="17.03" x2="10.956" y2="16.886" gradientUnits="userSpaceOnUse"><stop stop-color="#36D1DC"/><stop offset="1" stop-color="#4CA5E3"/></linearGradient></defs></svg>