<svg width="20" height="24" viewBox="0 0 20 24" fill="none" xmlns="http://www.w3.org/2000/svg"><path d="M9.995 0C4.692 0 .375 4.317.375 9.62a9.468 9.468 0 00.236 2.128c.146.65.363 1.289.645 1.897 1.036 2.44 3.315 6.189 8.316 10.204a.683.683 0 00.856 0c4.996-4.015 7.28-7.764 8.317-10.204a9.365 9.365 0 00.71-2.219c.11-.593.17-1.202.17-1.806C19.615 4.317 15.298 0 9.995 0zm8.11 11.19c0 .01-.004.02-.004.03-.005.025-.02.1-.046.216v.01a7.984 7.984 0 01-.558 1.64c-.005.006-.005.016-.01.02-.94 2.23-3.004 5.631-7.492 9.34-4.488-3.709-6.55-7.11-7.492-9.34-.005-.004-.005-.014-.01-.02a8.52 8.52 0 01-.558-1.64v-.01c-.03-.115-.04-.19-.046-.216 0-.01-.005-.02-.005-.035a8.216 8.216 0 01-.15-1.57c0-4.553 3.708-8.262 8.261-8.262 4.554 0 8.262 3.709 8.262 8.262 0 .533-.05 1.062-.151 1.575z" fill="url(#paint0_linear)"/><path d="M9.995 3.617a6.118 6.118 0 00-6.108 6.108 6.118 6.118 0 006.108 6.109 6.118 6.118 0 006.109-6.109 6.118 6.118 0 00-6.109-6.108zm0 10.858a4.755 4.755 0 01-4.75-4.75 4.758 4.758 0 014.75-4.75 4.759 4.759 0 014.75 4.75 4.755 4.755 0 01-4.75 4.75z" fill="url(#paint1_linear)"/><defs><linearGradient id="paint0_linear" x1="19.625" y1="24" x2="-.581" y2="23.166" gradientUnits="userSpaceOnUse"><stop stop-color="#36D1DC"/><stop offset="1" stop-color="#4CA5E3"/></linearGradient><linearGradient id="paint1_linear" x1="16.104" y1="15.834" x2="3.293" y2="15.175" gradientUnits="userSpaceOnUse"><stop stop-color="#36D1DC"/><stop offset="1" stop-color="#4CA5E3"/></linearGradient></defs></svg>