<svg width="24" height="24" viewBox="0 0 24 24" fill="none" xmlns="http://www.w3.org/2000/svg"><path d="M18.95 14.868c-.491-.512-1.084-.786-1.712-.786-.623 0-1.22.269-1.732.78l-1.601 1.596c-.132-.07-.263-.137-.39-.202a6.464 6.464 0 01-.502-.269c-1.499-.952-2.861-2.193-4.168-3.799-.633-.8-1.059-1.474-1.368-2.158.415-.38.8-.775 1.175-1.155l.426-.43c1.063-1.064 1.063-2.442 0-3.506L7.695 3.557c-.157-.157-.32-.32-.471-.482a23.915 23.915 0 00-.953-.942c-.49-.486-1.078-.744-1.696-.744-.618 0-1.216.258-1.723.744l-.01.01L1.12 3.881a3.706 3.706 0 00-1.1 2.355c-.12 1.48.315 2.857.65 3.759.82 2.213 2.046 4.265 3.874 6.463 2.219 2.65 4.888 4.741 7.938 6.215 1.165.553 2.72 1.206 4.457 1.317.107.005.218.01.32.01 1.17 0 2.152-.42 2.922-1.256.005-.01.015-.015.02-.025.264-.32.568-.608.887-.917.217-.208.44-.425.658-.653.502-.522.765-1.13.765-1.753 0-.628-.268-1.23-.78-1.737l-2.78-2.791zm1.814 5.333c-.006 0-.006.005 0 0-.198.213-.4.406-.619.618-.329.315-.663.644-.977 1.014-.512.547-1.114.805-1.905.805-.076 0-.157 0-.233-.005-1.504-.096-2.902-.684-3.95-1.185-2.868-1.388-5.385-3.359-7.477-5.856-1.727-2.082-2.882-4.007-3.647-6.073-.471-1.262-.643-2.244-.568-3.171.051-.593.28-1.084.7-1.505l1.727-1.727c.248-.233.511-.36.77-.36.319 0 .577.193.74.355l.014.015c.31.289.603.588.912.907.157.162.32.324.481.491l1.383 1.383c.537.537.537 1.033 0 1.57-.147.147-.288.294-.435.436-.426.435-.831.84-1.272 1.236-.01.01-.02.015-.025.025-.436.436-.355.861-.263 1.15l.015.046c.36.87.866 1.691 1.636 2.669l.005.005c1.398 1.722 2.872 3.065 4.498 4.093.208.132.42.238.623.34.182.09.355.177.502.268.02.01.04.025.06.035.173.086.335.127.502.127.42 0 .684-.264.77-.35l1.732-1.732c.172-.172.446-.38.765-.38.314 0 .572.198.73.37a.967.967 0 01.01.01l2.79 2.791c.522.517.522 1.049.006 1.585z" fill="url(#paint0_linear)"/><path d="M12.953 5.708a6.423 6.423 0 013.495 1.813 6.456 6.456 0 011.813 3.496.68.68 0 00.674.567c.04 0 .076-.005.116-.01a.685.685 0 00.563-.79 7.812 7.812 0 00-2.194-4.23 7.813 7.813 0 00-4.23-2.193.687.687 0 00-.79.557c-.066.37.178.73.553.79z" fill="url(#paint1_linear)"/><path d="M23.955 10.587a12.853 12.853 0 00-3.612-6.965A12.853 12.853 0 0013.378.01a.681.681 0 00-.785.558.687.687 0 00.562.79c2.36.4 4.514 1.52 6.226 3.226a11.476 11.476 0 013.226 6.226.68.68 0 00.674.567c.04 0 .076-.005.117-.01a.671.671 0 00.557-.78z" fill="url(#paint2_linear)"/><defs><linearGradient id="paint0_linear" x1="22.511" y1="24" x2="-1.096" y2="22.792" gradientUnits="userSpaceOnUse"><stop stop-color="#36D1DC"/><stop offset="1" stop-color="#4CA5E3"/></linearGradient><linearGradient id="paint1_linear" x1="19.623" y1="11.584" x2="12.038" y2="11.194" gradientUnits="userSpaceOnUse"><stop stop-color="#36D1DC"/><stop offset="1" stop-color="#4CA5E3"/></linearGradient><linearGradient id="paint2_linear" x1="23.965" y1="11.377" x2="12.03" y2="10.763" gradientUnits="userSpaceOnUse"><stop stop-color="#36D1DC"/><stop offset="1" stop-color="#4CA5E3"/></linearGradient></defs></svg>